# xmcd
#
# Track frame offsets: 
#        150
#        15537
#        28316
#        50629
#        74325
#        92225
#        108417
#        129103
#        157137
#        179327
#        200021
#        215432
#        231642
#        257577
#
# Disc length: 3639 seconds
#
# Revision: 0
# Processed by: cddbd v1.5.2PL0 Copyright (c) Steve Scherf et al.
# Submitted via: ExactAudioCopy v0.99pb5
#
DISCID=cf0e350e
DTITLE=Gustav Peter Wöhler Band - Get Back
DYEAR=2009
DGENRE=Blues
TTITLE0=Get Back
TTITLE1=Big Yellow Taxi
TTITLE2=Washing of the Water
TTITLE3=Your Song
TTITLE4=Son of a Preacher
TTITLE5=Make you feel my Love
TTITLE6=Let it be
TTITLE7=Bad
TTITLE8=I still haven´t found
TTITLE9=Imagine
TTITLE10=May you never
TTITLE11=Friday I´m in Love
TTITLE12=I don´t want to miss a Thing
TTITLE13=Go leave
EXTD=
EXTT0=
EXTT1=
EXTT2=
EXTT3=
EXTT4=
EXTT5=
EXTT6=
EXTT7=
EXTT8=
EXTT9=
EXTT10=
EXTT11=
EXTT12=
EXTT13=
PLAYORDER=
